<mxfile host="app.diagrams.net" modified="2024-06-23T10:45:18.120Z" agent="Mozilla/5.0 (Macintosh; Intel Mac OS X 10_15_7) AppleWebKit/537.36 (KHTML, like Gecko) Chrome/120.0.0.0 Whale/3.24.223.18 Safari/537.36" etag="9Z7VTrFjLqKJKCFWPrOG" version="24.6.2" type="github">
  <diagram name="페이지-1" id="f_ijAe2MVVdj1flssfW5">
    <mxGraphModel dx="499" dy="950" grid="1" gridSize="10" guides="1" tooltips="1" connect="1" arrows="1" fold="1" page="1" pageScale="1" pageWidth="1169" pageHeight="827" math="0" shadow="0">
      <root>
        <mxCell id="0" />
        <mxCell id="1" parent="0" />
        <mxCell id="nf2A2d5hDT474Z5YE6yA-1" value="" style="rounded=0;whiteSpace=wrap;html=1;fillColor=#dae8fc;strokeColor=#6c8ebf;" parent="1" vertex="1">
          <mxGeometry x="120" y="80" width="280" height="130" as="geometry" />
        </mxCell>
        <mxCell id="nf2A2d5hDT474Z5YE6yA-2" value="Inbound Topic" style="rounded=1;whiteSpace=wrap;html=1;" parent="1" vertex="1">
          <mxGeometry x="130" y="130" width="120" height="60" as="geometry" />
        </mxCell>
        <mxCell id="nf2A2d5hDT474Z5YE6yA-3" value="Outbound Topic" style="rounded=1;whiteSpace=wrap;html=1;" parent="1" vertex="1">
          <mxGeometry x="270" y="130" width="120" height="60" as="geometry" />
        </mxCell>
        <mxCell id="nf2A2d5hDT474Z5YE6yA-4" value="&lt;font style=&quot;font-size: 15px;&quot;&gt;Kafka Cluster&lt;/font&gt;" style="text;html=1;align=center;verticalAlign=middle;whiteSpace=wrap;rounded=0;" parent="1" vertex="1">
          <mxGeometry x="210" y="80" width="100" height="50" as="geometry" />
        </mxCell>
        <mxCell id="nf2A2d5hDT474Z5YE6yA-5" value="" style="rounded=0;whiteSpace=wrap;html=1;fillColor=#d5e8d4;strokeColor=#82b366;" parent="1" vertex="1">
          <mxGeometry x="90" y="310" width="340" height="200" as="geometry" />
        </mxCell>
        <mxCell id="gATuGFyR8Gxn_eFIsUjg-6" style="edgeStyle=orthogonalEdgeStyle;rounded=0;orthogonalLoop=1;jettySize=auto;html=1;exitX=0.75;exitY=1;exitDx=0;exitDy=0;entryX=0.25;entryY=0;entryDx=0;entryDy=0;" edge="1" parent="1" source="nf2A2d5hDT474Z5YE6yA-6" target="gATuGFyR8Gxn_eFIsUjg-5">
          <mxGeometry relative="1" as="geometry" />
        </mxCell>
        <mxCell id="nf2A2d5hDT474Z5YE6yA-6" value="Kafka Consumer" style="rounded=1;whiteSpace=wrap;html=1;" parent="1" vertex="1">
          <mxGeometry x="130" y="330" width="120" height="60" as="geometry" />
        </mxCell>
        <mxCell id="nf2A2d5hDT474Z5YE6yA-10" style="edgeStyle=orthogonalEdgeStyle;rounded=0;orthogonalLoop=1;jettySize=auto;html=1;entryX=0.5;entryY=1;entryDx=0;entryDy=0;" parent="1" source="nf2A2d5hDT474Z5YE6yA-7" target="nf2A2d5hDT474Z5YE6yA-3" edge="1">
          <mxGeometry relative="1" as="geometry" />
        </mxCell>
        <mxCell id="nf2A2d5hDT474Z5YE6yA-7" value="Kafka Producer" style="rounded=1;whiteSpace=wrap;html=1;" parent="1" vertex="1">
          <mxGeometry x="270" y="330" width="120" height="60" as="geometry" />
        </mxCell>
        <mxCell id="nf2A2d5hDT474Z5YE6yA-8" value="&lt;font style=&quot;font-size: 15px;&quot;&gt;Spring Application&lt;/font&gt;" style="text;html=1;align=center;verticalAlign=middle;whiteSpace=wrap;rounded=0;" parent="1" vertex="1">
          <mxGeometry x="195" y="460" width="130" height="50" as="geometry" />
        </mxCell>
        <mxCell id="nf2A2d5hDT474Z5YE6yA-9" style="edgeStyle=orthogonalEdgeStyle;rounded=0;orthogonalLoop=1;jettySize=auto;html=1;exitX=0.5;exitY=1;exitDx=0;exitDy=0;" parent="1" source="nf2A2d5hDT474Z5YE6yA-2" edge="1">
          <mxGeometry relative="1" as="geometry">
            <mxPoint x="190" y="330" as="targetPoint" />
          </mxGeometry>
        </mxCell>
        <mxCell id="nf2A2d5hDT474Z5YE6yA-11" value="1. consume" style="text;html=1;align=center;verticalAlign=middle;whiteSpace=wrap;rounded=0;" parent="1" vertex="1">
          <mxGeometry x="190" y="240" width="70" height="30" as="geometry" />
        </mxCell>
        <mxCell id="nf2A2d5hDT474Z5YE6yA-12" value="4. produce" style="text;html=1;align=center;verticalAlign=middle;whiteSpace=wrap;rounded=0;" parent="1" vertex="1">
          <mxGeometry x="330" y="240" width="70" height="30" as="geometry" />
        </mxCell>
        <mxCell id="gATuGFyR8Gxn_eFIsUjg-1" style="edgeStyle=orthogonalEdgeStyle;rounded=0;orthogonalLoop=1;jettySize=auto;html=1;exitX=0;exitY=0.5;exitDx=0;exitDy=0;entryX=0.25;entryY=1;entryDx=0;entryDy=0;" edge="1" parent="1" source="nf2A2d5hDT474Z5YE6yA-6" target="nf2A2d5hDT474Z5YE6yA-6">
          <mxGeometry relative="1" as="geometry" />
        </mxCell>
        <mxCell id="gATuGFyR8Gxn_eFIsUjg-2" style="edgeStyle=orthogonalEdgeStyle;rounded=0;orthogonalLoop=1;jettySize=auto;html=1;exitX=1;exitY=0.5;exitDx=0;exitDy=0;entryX=0.75;entryY=1;entryDx=0;entryDy=0;" edge="1" parent="1" source="nf2A2d5hDT474Z5YE6yA-7" target="nf2A2d5hDT474Z5YE6yA-7">
          <mxGeometry relative="1" as="geometry" />
        </mxCell>
        <mxCell id="gATuGFyR8Gxn_eFIsUjg-3" value="2. deserialize" style="text;html=1;align=center;verticalAlign=middle;whiteSpace=wrap;rounded=0;" vertex="1" parent="1">
          <mxGeometry x="90" y="410" width="80" height="30" as="geometry" />
        </mxCell>
        <mxCell id="gATuGFyR8Gxn_eFIsUjg-4" value="3. serialize" style="text;html=1;align=center;verticalAlign=middle;whiteSpace=wrap;rounded=0;" vertex="1" parent="1">
          <mxGeometry x="360" y="410" width="70" height="30" as="geometry" />
        </mxCell>
        <mxCell id="gATuGFyR8Gxn_eFIsUjg-5" value="Processor" style="rounded=1;whiteSpace=wrap;html=1;" vertex="1" parent="1">
          <mxGeometry x="200" y="410" width="120" height="60" as="geometry" />
        </mxCell>
        <mxCell id="gATuGFyR8Gxn_eFIsUjg-7" style="edgeStyle=orthogonalEdgeStyle;rounded=0;orthogonalLoop=1;jettySize=auto;html=1;exitX=0.75;exitY=0;exitDx=0;exitDy=0;entryX=0.167;entryY=0.977;entryDx=0;entryDy=0;entryPerimeter=0;" edge="1" parent="1" source="gATuGFyR8Gxn_eFIsUjg-5" target="nf2A2d5hDT474Z5YE6yA-7">
          <mxGeometry relative="1" as="geometry" />
        </mxCell>
      </root>
    </mxGraphModel>
  </diagram>
</mxfile>
